<svg width="48" height="48" viewBox="0 0 48 48" fill="none" xmlns="http://www.w3.org/2000/svg">
<rect width="48" height="48" rx="12" transform="matrix(-1 0 0 1 48 0)" fill="#EFF6FF"/>
<path d="M29.143 26.3812C29.143 27.9274 28.5335 29.4104 27.4485 30.5037C26.8325 31.1244 26.0917 31.591 25.2857 31.8782M33 26.7697C33 18.4617 24 12 24 12C24 12 15 18.4617 15 26.7697C15 29.2179 15.9482 31.5661 17.636 33.2972C19.3239 35.0284 21.6132 36 24.0001 36C26.3871 36 28.6761 35.0279 30.3639 33.2967C32.0517 31.5655 33 29.2179 33 26.7697Z" stroke="#155DFC" stroke-width="2" stroke-linecap="round" stroke-linejoin="round"/>
</svg>
