<svg width="48" height="48" viewBox="0 0 48 48" fill="none" xmlns="http://www.w3.org/2000/svg">
<rect width="48" height="48" rx="8" fill="#50A2FF"/>
<path d="M18.7202 30.216C17.6882 30.216 16.7642 29.964 15.9482 29.46C15.1322 28.944 14.4902 28.2 14.0222 27.228C13.5542 26.256 13.3202 25.08 13.3202 23.7C13.3202 22.32 13.5542 21.144 14.0222 20.172C14.4902 19.2 15.1322 18.462 15.9482 17.958C16.7642 17.442 17.6882 17.184 18.7202 17.184C19.7642 17.184 20.6882 17.442 21.4922 17.958C22.3082 18.462 22.9502 19.2 23.4182 20.172C23.8862 21.144 24.1202 22.32 24.1202 23.7C24.1202 25.08 23.8862 26.256 23.4182 27.228C22.9502 28.2 22.3082 28.944 21.4922 29.46C20.6882 29.964 19.7642 30.216 18.7202 30.216ZM18.7202 27.75C19.2122 27.75 19.6382 27.612 19.9982 27.336C20.3702 27.06 20.6582 26.622 20.8622 26.022C21.0782 25.422 21.1862 24.648 21.1862 23.7C21.1862 22.752 21.0782 21.978 20.8622 21.378C20.6582 20.778 20.3702 20.34 19.9982 20.064C19.6382 19.788 19.2122 19.65 18.7202 19.65C18.2402 19.65 17.8142 19.788 17.4422 20.064C17.0822 20.34 16.7942 20.778 16.5782 21.378C16.3742 21.978 16.2722 22.752 16.2722 23.7C16.2722 24.648 16.3742 25.422 16.5782 26.022C16.7942 26.622 17.0822 27.06 17.4422 27.336C17.8142 27.612 18.2402 27.75 18.7202 27.75ZM25.3586 30V28.11L30.2186 23.52C30.6026 23.172 30.8846 22.86 31.0646 22.584C31.2446 22.308 31.3646 22.056 31.4246 21.828C31.4966 21.6 31.5326 21.39 31.5326 21.198C31.5326 20.694 31.3586 20.31 31.0106 20.046C30.6746 19.77 30.1766 19.632 29.5166 19.632C28.9886 19.632 28.4966 19.734 28.0406 19.938C27.5966 20.142 27.2186 20.46 26.9066 20.892L24.7826 19.524C25.2626 18.804 25.9346 18.234 26.7986 17.814C27.6626 17.394 28.6586 17.184 29.7866 17.184C30.7226 17.184 31.5386 17.34 32.2346 17.652C32.9426 17.952 33.4886 18.378 33.8726 18.93C34.2686 19.482 34.4666 20.142 34.4666 20.91C34.4666 21.318 34.4126 21.726 34.3046 22.134C34.2086 22.53 34.0046 22.95 33.6926 23.394C33.3926 23.838 32.9486 24.336 32.3606 24.888L28.3286 28.686L27.7706 27.624H34.8806V30H25.3586Z" fill="white"/>
</svg>
