<svg width="64" height="64" viewBox="0 0 64 64" fill="none" xmlns="http://www.w3.org/2000/svg">
<rect width="64" height="64" rx="8" fill="#102555"/>
<path d="M17.7778 20.4286L28.6358 29.3237L28.6394 29.3269C29.8451 30.286 30.4482 30.7659 31.1089 30.9513C31.6929 31.1151 32.3067 31.1151 32.8906 30.9513C33.5519 30.7657 34.1568 30.2845 35.3646 29.3237C35.3646 29.3237 42.329 23.5257 46.2222 20.4286M16 39.3289V24.6718C16 22.5116 16 21.4307 16.3875 20.6056C16.7284 19.8798 17.272 19.2902 17.941 18.9204C18.7015 18.5 19.6979 18.5 21.6892 18.5H42.3115C44.3028 18.5 45.297 18.5 46.0576 18.9204C46.7266 19.2902 47.272 19.8798 47.6128 20.6056C48 21.4299 48 22.5095 48 24.6655V39.3355C48 41.4915 48 42.5695 47.6128 43.3938C47.272 44.1195 46.7266 44.7102 46.0576 45.08C45.2978 45.5 44.304 45.5 42.3166 45.5H21.6834C19.696 45.5 18.7008 45.5 17.941 45.08C17.272 44.7102 16.7284 44.1195 16.3875 43.3938C16 42.5687 16 41.4892 16 39.3289Z" stroke="#50A2FF" stroke-width="2" stroke-linecap="round" stroke-linejoin="round"/>
</svg>
