<svg width="64" height="64" viewBox="0 0 64 64" fill="none" xmlns="http://www.w3.org/2000/svg">
<rect width="64" height="64" rx="8" fill="#102555"/>
<path d="M19 28.4833C19 37.2321 26.8826 44.467 30.3717 47.2408C30.871 47.6378 31.1237 47.8387 31.4962 47.9405C31.7863 48.0198 32.2133 48.0198 32.5034 47.9405C32.8766 47.8385 33.1275 47.6396 33.6287 47.2411C37.1178 44.4673 45 37.2329 45 28.4841C45 25.1732 43.6304 21.9975 41.1924 19.6564C38.7545 17.3152 35.4481 16 32.0002 16C28.5524 16 25.2456 17.3154 22.8076 19.6566C20.3696 21.9977 19 25.1724 19 28.4833Z" stroke="#50A2FF" stroke-width="2" stroke-linecap="round" stroke-linejoin="round"/>
<path d="M28.2858 26.8192C28.2858 28.811 29.9487 30.4256 32.0001 30.4256C34.0514 30.4256 35.7144 28.811 35.7144 26.8192C35.7144 24.8274 34.0514 23.2128 32.0001 23.2128C29.9487 23.2128 28.2858 24.8274 28.2858 26.8192Z" stroke="#50A2FF" stroke-width="2" stroke-linecap="round" stroke-linejoin="round"/>
</svg>
