<svg width="64" height="64" viewBox="0 0 64 64" fill="none" xmlns="http://www.w3.org/2000/svg">
<rect width="64" height="64" rx="8" fill="#102555"/>
<path d="M27.5596 18.2351C27.0197 16.8852 25.7123 16 24.2585 16H19.3683C17.5081 16 16 17.5077 16 19.3681C16 35.1809 28.8188 48 44.6312 48C46.4915 48 47.9992 46.4918 47.9992 44.6315L48 39.7404C48 38.2865 47.1151 36.9793 45.7652 36.4394L41.0783 34.5652C39.8658 34.0802 38.4853 34.2985 37.482 35.1346L36.2724 36.1434C34.8597 37.3207 32.7811 37.2271 31.4808 35.9267L28.0748 32.5174C26.7745 31.2171 26.6784 29.1402 27.8556 27.7274L28.8643 26.5179C29.7003 25.5146 29.9205 24.1336 29.4355 22.9211L27.5596 18.2351Z" stroke="#50A2FF" stroke-width="2" stroke-linecap="round" stroke-linejoin="round"/>
</svg>
