<svg width="48" height="48" viewBox="0 0 48 48" fill="none" xmlns="http://www.w3.org/2000/svg">
<rect width="48" height="48" rx="8" fill="#50A2FF"/>
<path d="M17.7885 30.216C16.7565 30.216 15.8325 29.964 15.0165 29.46C14.2005 28.944 13.5585 28.2 13.0905 27.228C12.6225 26.256 12.3885 25.08 12.3885 23.7C12.3885 22.32 12.6225 21.144 13.0905 20.172C13.5585 19.2 14.2005 18.462 15.0165 17.958C15.8325 17.442 16.7565 17.184 17.7885 17.184C18.8325 17.184 19.7565 17.442 20.5605 17.958C21.3765 18.462 22.0185 19.2 22.4865 20.172C22.9545 21.144 23.1885 22.32 23.1885 23.7C23.1885 25.08 22.9545 26.256 22.4865 27.228C22.0185 28.2 21.3765 28.944 20.5605 29.46C19.7565 29.964 18.8325 30.216 17.7885 30.216ZM17.7885 27.75C18.2805 27.75 18.7065 27.612 19.0665 27.336C19.4385 27.06 19.7265 26.622 19.9305 26.022C20.1465 25.422 20.2545 24.648 20.2545 23.7C20.2545 22.752 20.1465 21.978 19.9305 21.378C19.7265 20.778 19.4385 20.34 19.0665 20.064C18.7065 19.788 18.2805 19.65 17.7885 19.65C17.3085 19.65 16.8825 19.788 16.5105 20.064C16.1505 20.34 15.8625 20.778 15.6465 21.378C15.4425 21.978 15.3405 22.752 15.3405 23.7C15.3405 24.648 15.4425 25.422 15.6465 26.022C15.8625 26.622 16.1505 27.06 16.5105 27.336C16.8825 27.612 17.3085 27.75 17.7885 27.75ZM24.4613 27.354V25.392L30.4013 17.4H33.4613L27.6473 25.392L26.2253 24.978H36.1433V27.354H24.4613ZM31.2473 30V27.354L31.3373 24.978V22.62H34.0913V30H31.2473Z" fill="white"/>
</svg>
