<svg width="48" height="48" viewBox="0 0 48 48" fill="none" xmlns="http://www.w3.org/2000/svg">
<rect width="48" height="48" rx="8" fill="#50A2FF"/>
<path d="M20.5043 30.216C19.4723 30.216 18.5483 29.964 17.7323 29.46C16.9163 28.944 16.2743 28.2 15.8063 27.228C15.3383 26.256 15.1043 25.08 15.1043 23.7C15.1043 22.32 15.3383 21.144 15.8063 20.172C16.2743 19.2 16.9163 18.462 17.7323 17.958C18.5483 17.442 19.4723 17.184 20.5043 17.184C21.5483 17.184 22.4723 17.442 23.2763 17.958C24.0923 18.462 24.7343 19.2 25.2023 20.172C25.6703 21.144 25.9043 22.32 25.9043 23.7C25.9043 25.08 25.6703 26.256 25.2023 27.228C24.7343 28.2 24.0923 28.944 23.2763 29.46C22.4723 29.964 21.5483 30.216 20.5043 30.216ZM20.5043 27.75C20.9963 27.75 21.4223 27.612 21.7823 27.336C22.1543 27.06 22.4423 26.622 22.6463 26.022C22.8623 25.422 22.9703 24.648 22.9703 23.7C22.9703 22.752 22.8623 21.978 22.6463 21.378C22.4423 20.778 22.1543 20.34 21.7823 20.064C21.4223 19.788 20.9963 19.65 20.5043 19.65C20.0243 19.65 19.5983 19.788 19.2263 20.064C18.8663 20.34 18.5783 20.778 18.3623 21.378C18.1583 21.978 18.0563 22.752 18.0563 23.7C18.0563 24.648 18.1583 25.422 18.3623 26.022C18.5783 26.622 18.8663 27.06 19.2263 27.336C19.5983 27.612 20.0243 27.75 20.5043 27.75ZM29.1948 30V18.48L30.4548 19.74H26.6748V17.4H32.1108V30H29.1948Z" fill="white"/>
</svg>
