<svg width="48" height="48" viewBox="0 0 48 48" fill="none" xmlns="http://www.w3.org/2000/svg">
<rect width="48" height="48" rx="8" fill="#50A2FF"/>
<path d="M18.7553 30.216C17.7233 30.216 16.7993 29.964 15.9833 29.46C15.1673 28.944 14.5253 28.2 14.0573 27.228C13.5893 26.256 13.3553 25.08 13.3553 23.7C13.3553 22.32 13.5893 21.144 14.0573 20.172C14.5253 19.2 15.1673 18.462 15.9833 17.958C16.7993 17.442 17.7233 17.184 18.7553 17.184C19.7993 17.184 20.7233 17.442 21.5273 17.958C22.3433 18.462 22.9853 19.2 23.4533 20.172C23.9213 21.144 24.1553 22.32 24.1553 23.7C24.1553 25.08 23.9213 26.256 23.4533 27.228C22.9853 28.2 22.3433 28.944 21.5273 29.46C20.7233 29.964 19.7993 30.216 18.7553 30.216ZM18.7553 27.75C19.2473 27.75 19.6733 27.612 20.0333 27.336C20.4053 27.06 20.6933 26.622 20.8973 26.022C21.1133 25.422 21.2213 24.648 21.2213 23.7C21.2213 22.752 21.1133 21.978 20.8973 21.378C20.6933 20.778 20.4053 20.34 20.0333 20.064C19.6733 19.788 19.2473 19.65 18.7553 19.65C18.2753 19.65 17.8493 19.788 17.4773 20.064C17.1173 20.34 16.8293 20.778 16.6133 21.378C16.4093 21.978 16.3073 22.752 16.3073 23.7C16.3073 24.648 16.4093 25.422 16.6133 26.022C16.8293 26.622 17.1173 27.06 17.4773 27.336C17.8493 27.612 18.2753 27.75 18.7553 27.75ZM29.4823 30.216C28.6063 30.216 27.7363 30.102 26.8723 29.874C26.0083 29.634 25.2763 29.298 24.6763 28.866L25.8103 26.634C26.2903 26.982 26.8483 27.258 27.4843 27.462C28.1203 27.666 28.7623 27.768 29.4103 27.768C30.1423 27.768 30.7183 27.624 31.1383 27.336C31.5583 27.048 31.7683 26.652 31.7683 26.148C31.7683 25.668 31.5823 25.29 31.2103 25.014C30.8383 24.738 30.2383 24.6 29.4103 24.6H28.0783V22.674L31.5883 18.696L31.9123 19.74H25.3063V17.4H34.1263V19.29L30.6343 23.268L29.1583 22.422H30.0043C31.5523 22.422 32.7223 22.77 33.5143 23.466C34.3063 24.162 34.7023 25.056 34.7023 26.148C34.7023 26.856 34.5163 27.522 34.1443 28.146C33.7723 28.758 33.2023 29.256 32.4343 29.64C31.6663 30.024 30.6823 30.216 29.4823 30.216Z" fill="white"/>
</svg>
