<svg width="104" height="32" viewBox="0 0 104 32" fill="none" xmlns="http://www.w3.org/2000/svg">
<path d="M0.26236 13.0499C-0.247681 12.5553 0.0293743 11.6611 0.719248 11.5754L10.4944 10.3595C10.7756 10.3245 11.0198 10.1394 11.1384 9.86978L15.2614 0.496211C15.5524 -0.165319 16.4492 -0.165446 16.7402 0.496083L20.8632 9.86958C20.9818 10.1392 21.2244 10.3248 21.5056 10.3598L31.2813 11.5754C31.9712 11.6611 32.2475 12.5556 31.7374 13.0502L24.5112 20.0593C24.3033 20.2609 24.2108 20.5609 24.266 20.8521L26.1838 30.9768C26.3192 31.6914 25.594 32.245 24.9878 31.8892L16.3984 26.8459C16.1513 26.7009 15.8511 26.7016 15.6041 26.8466L7.01376 31.8879C6.40756 32.2437 5.68106 31.6913 5.81645 30.9768L7.73458 20.8528C7.78976 20.5616 7.69744 20.2608 7.48957 20.0592L0.26236 13.0499Z" fill="#FFB900"/>
<path d="M36.2624 13.0499C35.7523 12.5553 36.0294 11.6611 36.7192 11.5754L46.4944 10.3595C46.7756 10.3245 47.0198 10.1394 47.1384 9.86978L51.2614 0.496211C51.5524 -0.165319 52.4492 -0.165446 52.7402 0.496083L56.8632 9.86958C56.9818 10.1392 57.2244 10.3248 57.5056 10.3598L67.2813 11.5754C67.9712 11.6611 68.2475 12.5556 67.7374 13.0502L60.5112 20.0593C60.3033 20.2609 60.2108 20.5609 60.266 20.8521L62.1838 30.9768C62.3192 31.6914 61.594 32.245 60.9878 31.8892L52.3984 26.8459C52.1513 26.7009 51.8511 26.7016 51.6041 26.8466L43.0138 31.8879C42.4076 32.2437 41.6811 31.6913 41.8165 30.9768L43.7346 20.8528C43.7898 20.5616 43.6974 20.2608 43.4896 20.0592L36.2624 13.0499Z" fill="#FFB900"/>
<path d="M72.2624 13.0499C71.7523 12.5553 72.0294 11.6611 72.7192 11.5754L82.4944 10.3595C82.7756 10.3245 83.0198 10.1394 83.1384 9.86978L87.2614 0.496211C87.5524 -0.165319 88.4492 -0.165446 88.7402 0.496083L92.8632 9.86958C92.9818 10.1392 93.2244 10.3248 93.5056 10.3598L103.281 11.5754C103.971 11.6611 104.247 12.5556 103.737 13.0502L96.5112 20.0593C96.3033 20.2609 96.2108 20.5609 96.266 20.8521L98.1838 30.9768C98.3192 31.6914 97.594 32.245 96.9878 31.8892L88.3984 26.8459C88.1513 26.7009 87.8511 26.7016 87.6041 26.8466L79.0138 31.8879C78.4076 32.2437 77.6811 31.6913 77.8165 30.9768L79.7346 20.8528C79.7898 20.5616 79.6974 20.2608 79.4896 20.0592L72.2624 13.0499Z" fill="#FFB900"/>
</svg>
